<?xml version="1.0" encoding="UTF-8"?>
<!-- Generated by Pixelmator Pro 3.5.3 -->
<svg width="682" height="682" viewBox="0 0 682 682" xmlns="http://www.w3.org/2000/svg">
    <g id="Group">
        <path id="Path" fill="#ece8e2" stroke="none" d="M 52.666668 1.200012 C 26.533333 7.733337 6.933333 28.133362 1.2 55.200012 C 0.4 59.06665 0.133333 164 0.266667 344.666656 L 0.666667 628 L 3.6 635.733337 C 11.333333 656.266663 26.666666 671.466675 46.666668 678.266663 L 55.333332 681.333313 L 341.333344 681.333313 C 619.866638 681.333313 627.599976 681.200012 635.200012 678.799988 C 655.333313 672.133362 672 655.599976 678.93335 635.333313 L 682 626.666687 L 682 340.666656 C 682 62.133362 681.866638 54.400024 679.466675 46.799988 C 672.93335 27.06665 657.06665 10.799988 636.533325 3.06665 L 628.666687 0 L 344 -0.266663 C 121.199997 -0.400024 57.866665 -0.133362 52.666668 1.200012 Z M 146 178.266663 C 146.399994 180.666656 153.333328 229.066681 161.333328 285.866669 C 169.333328 342.533325 176.133331 389.200012 176.399994 389.466675 C 176.53334 389.733337 183.733337 341.866669 192.399994 283.200012 C 200.933334 224.533325 208.266663 176 208.666672 175.333344 C 209.333328 174.266663 255.733337 173.333344 256.133331 174.266663 C 256.133331 174.533325 263.200012 223.200012 271.866669 282.666656 C 282.933319 358.399994 287.866669 389.333344 288.533325 386 C 288.933319 383.466675 296 335.466675 304 279.333344 C 312.133331 223.200012 318.933319 176.533325 319.333344 175.600006 C 319.733337 174.399994 326.799988 174 348 174 C 373.733337 174 376 174.133331 376 176.266663 C 376.133331 181.333344 319.466675 505.466675 318.266663 506.93335 C 316.399994 509.333313 259.600006 509.333313 257.733337 506.93335 C 257.066681 506.133331 251.066666 467.733337 244.53334 421.600006 C 238 375.600006 232.399994 338 232 338 C 231.600006 338 226 375.600006 219.46666 421.600006 C 213.066666 467.733337 207.066666 506.133331 206.399994 506.93335 C 205.333328 508.266663 197.600006 508.666687 175.866669 508.666687 C 146.800003 508.666687 146.666672 508.666687 145.333328 505.600006 C 144.399994 503.333313 88 178.266663 88 174.799988 C 88 174.399994 100.933334 174 116.666664 174 L 145.199997 174 L 146 178.266663 Z M 530.666687 177.866669 C 555.333313 185.333344 573.200012 200.266663 584.400024 222.799988 C 592.400024 238.799988 594 247.466675 594 274.666656 C 594 295.733337 593.599976 300 590.93335 309.333344 C 580 347.066681 554.533325 373.333344 520.533325 382 C 512.266663 384.133331 505.866669 384.666656 487.066681 384.666656 L 464 384.666656 L 464 445.06665 C 464 490.266663 463.600006 505.866669 462.399994 507.06665 C 460.266663 509.200012 407.200012 509.333313 405.866669 507.200012 C 404.799988 505.466675 405.200012 176.666656 406.266663 174.933319 C 406.666656 174.399994 432.399994 174 463.866669 174.266663 C 518.266663 174.799988 521.06665 174.933319 530.666687 177.866669 Z"/>
        <path id="path1" fill="#ece8e2" stroke="none" d="M 464 278.799988 L 464 326.133331 L 487.200012 325.733337 L 510.399994 325.333344 L 516.133362 321.333344 C 523.599976 316.133331 529.733337 308 533.466675 298.399994 C 536 292 536.533325 288 536.533325 275.333344 C 536.666687 262 536.266663 259.066681 533.466675 252.933319 C 529.733337 244.533325 519.733337 235.200012 512.266663 232.933319 C 509.200012 232 498.266663 231.333344 485.466675 231.333344 L 464 231.333344 L 464 278.799988 Z"/>
    </g>
</svg>
