<?xml version="1.0" standalone="no"?>
<!DOCTYPE svg PUBLIC "-//W3C//DTD SVG 20010904//EN"
 "http://www.w3.org/TR/2001/REC-SVG-20010904/DTD/svg10.dtd">
<svg version="1.0" xmlns="http://www.w3.org/2000/svg"
 width="512.000000pt" height="512.000000pt" viewBox="0 0 512.000000 512.000000"
 preserveAspectRatio="xMidYMid meet">
<metadata>
Created by potrace 1.14, written by Peter Selinger 2001-2017
</metadata>
<g transform="translate(0.000000,512.000000) scale(0.100000,-0.100000)"
fill="#000000" stroke="none">
<path d="M395 5106 c-196 -49 -343 -202 -386 -405 -6 -29 -8 -816 -7 -2171 l3
-2125 22 -58 c58 -154 173 -268 323 -319 l65 -23 2145 0 c2089 0 2147 1 2204
19 151 50 276 174 328 326 l23 65 0 2145 c0 2089 -1 2147 -19 2204 -49 148
-168 270 -322 328 l-59 23 -2135 2 c-1671 1 -2146 -1 -2185 -11z m700 -1328
c3 -18 55 -381 115 -807 60 -425 111 -775 113 -777 1 -2 55 357 120 797 64
440 119 804 122 809 5 8 353 15 356 8 0 -2 53 -367 118 -813 83 -568 120 -800
125 -775 3 19 56 379 116 800 61 421 112 771 115 778 3 9 56 12 215 12 193 0
210 -1 210 -17 1 -38 -424 -2469 -433 -2480 -14 -18 -440 -18 -454 0 -5 6 -50
294 -99 640 -49 345 -91 627 -94 627 -3 0 -45 -282 -94 -627 -48 -346 -93
-634 -98 -640 -8 -10 -66 -13 -229 -13 -218 0 -219 0 -229 23 -7 17 -430 2455
-430 2481 0 3 97 6 215 6 l214 0 6 -32z m2885 3 c185 -56 319 -168 403 -337
60 -120 72 -185 72 -389 0 -158 -3 -190 -23 -260 -82 -283 -273 -480 -528
-545 -62 -16 -110 -20 -251 -20 l-173 0 0 -453 c0 -339 -3 -456 -12 -465 -16
-16 -414 -17 -424 -1 -8 13 -5 2479 3 2492 3 4 196 7 432 5 408 -4 429 -5 501
-27z"/>
<path d="M3480 3024 l0 -355 174 3 174 3 43 30 c56 39 102 100 130 172 19 48
23 78 23 173 1 100 -2 122 -23 168 -28 63 -103 133 -159 150 -23 7 -105 12
-201 12 l-161 0 0 -356z"/>
</g>
</svg>
